<svg clip-rule="evenodd" fill-rule="evenodd" stroke-linejoin="round" stroke-miterlimit="1.414" viewBox="0 0 24 24" xml:space="preserve" xmlns="http://www.w3.org/2000/svg"><path d="M10 4H4c-1.11 0-2 .89-2 2v12c0 1.097.903 2 2 2h16c1.097 0 2-.903 2-2V8a2 2 0 0 0-2-2h-8l-2-2z" fill="#26a69a" fill-rule="nonzero"/><path d="m17.612 8.537 6.119 6.119h-3.497v3.583c-.874.787-1.748 1.66-2.622 2.535l-6.119-6.119zm-2.535 6.119 2.535 2.534v-2.535h2.535a34.676 34.676 0 0 0-2.535-2.534 34.675 34.675 0 0 0-2.535 2.534z" fill="#b2dfdb"/></svg>